<svg width="256" height="256" viewBox="0 0 256 256" fill="none" xmlns="http://www.w3.org/2000/svg">
<g filter="url(#filter0_i_44_2)">
<path d="M130.774 34C168.151 34.0017 198.453 64.3022 198.453 101.679C198.453 139.057 168.15 169.357 130.774 169.359C124.517 169.359 118.46 168.502 112.71 166.907C107.073 165.344 100.803 167.346 97.9972 172.479C95.0216 177.922 97.0241 184.827 102.834 187.003C110.229 189.772 118.148 191.521 126.434 192.066C144.919 193.28 162.38 188.322 176.811 178.96C183.952 174.327 193.721 174.626 199.332 181.027C204.654 187.097 204.248 196.391 197.697 201.108C177.193 215.87 151.636 223.873 124.458 222.087C97.4174 220.309 73.2574 209.111 54.895 191.943C54.8047 191.859 54.7042 191.786 54.5956 191.727L53.5436 191.155C53.4239 191.09 53.3794 190.94 53.4439 190.821C53.4965 190.723 53.4778 190.602 53.397 190.527C53.3291 190.463 53.2607 190.4 53.1922 190.337C52.9291 190.095 52.9383 189.684 53.2064 189.448L54.7671 188.074C54.9902 187.877 55.1773 187.643 55.3199 187.383L73.7164 153.751C76.6719 148.347 75.8931 141.765 72.7206 136.486C66.609 126.316 63.0943 114.409 63.0942 101.679C63.0942 64.3011 93.3954 34 130.774 34ZM130.774 64.0798C110.008 64.0798 93.174 80.9137 93.174 101.679C93.1741 122.445 110.008 139.279 130.774 139.279C151.538 139.277 168.373 122.444 168.373 101.679C168.373 80.9148 151.538 64.0815 130.774 64.0798Z" fill="#877CEC" style="fill:#877CEC;fill:color(display-p3 0.5291 0.4851 0.9256);fill-opacity:1;"/>
<path d="M130.774 34C168.151 34.0017 198.453 64.3022 198.453 101.679C198.453 139.057 168.15 169.357 130.774 169.359C124.517 169.359 118.46 168.502 112.71 166.907C107.073 165.344 100.803 167.346 97.9972 172.479C95.0216 177.922 97.0241 184.827 102.834 187.003C110.229 189.772 118.148 191.521 126.434 192.066C144.919 193.28 162.38 188.322 176.811 178.96C183.952 174.327 193.721 174.626 199.332 181.027C204.654 187.097 204.248 196.391 197.697 201.108C177.193 215.87 151.636 223.873 124.458 222.087C97.4174 220.309 73.2574 209.111 54.895 191.943C54.8047 191.859 54.7042 191.786 54.5956 191.727L53.5436 191.155C53.4239 191.09 53.3794 190.94 53.4439 190.821C53.4965 190.723 53.4778 190.602 53.397 190.527C53.3291 190.463 53.2607 190.4 53.1922 190.337C52.9291 190.095 52.9383 189.684 53.2064 189.448L54.7671 188.074C54.9902 187.877 55.1773 187.643 55.3199 187.383L73.7164 153.751C76.6719 148.347 75.8931 141.765 72.7206 136.486C66.609 126.316 63.0943 114.409 63.0942 101.679C63.0942 64.3011 93.3954 34 130.774 34ZM130.774 64.0798C110.008 64.0798 93.174 80.9137 93.174 101.679C93.1741 122.445 110.008 139.279 130.774 139.279C151.538 139.277 168.373 122.444 168.373 101.679C168.373 80.9148 151.538 64.0815 130.774 64.0798Z" fill="url(#paint0_linear_44_2)" fill-opacity="0.4" style="mix-blend-mode:soft-light"/>
</g>
<defs>
<filter id="filter0_i_44_2" x="53" y="34" width="150" height="188.333" filterUnits="userSpaceOnUse" color-interpolation-filters="sRGB">
<feFlood flood-opacity="0" result="BackgroundImageFix"/>
<feBlend mode="normal" in="SourceGraphic" in2="BackgroundImageFix" result="shape"/>
<feColorMatrix in="SourceAlpha" type="matrix" values="0 0 0 0 0 0 0 0 0 0 0 0 0 0 0 0 0 0 127 0" result="hardAlpha"/>
<feOffset/>
<feGaussianBlur stdDeviation="0.55"/>
<feComposite in2="hardAlpha" operator="arithmetic" k2="-1" k3="1"/>
<feColorMatrix type="matrix" values="0 0 0 0 1 0 0 0 0 1 0 0 0 0 1 0 0 0 0.16 0"/>
<feBlend mode="normal" in2="shape" result="effect1_innerShadow_44_2"/>
</filter>
<linearGradient id="paint0_linear_44_2" x1="196.054" y1="243.17" x2="128.375" y2="134.131" gradientUnits="userSpaceOnUse">
<stop stop-opacity="0" style="stop-color:none;stop-opacity:0;"/>
<stop offset="1" style="stop-color:black;stop-opacity:1;"/>
</linearGradient>
</defs>
</svg>
